<?xml version="1.0" ?><!-- Uploaded to: SVG Repo, www.svgrepo.com, Generator: SVG Repo Mixer Tools -->
<svg width="800px" height="800px" viewBox="0 0 512 512" data-name="Слой 1" id="Слой_1" xmlns="http://www.w3.org/2000/svg"><defs><style>.cls-1{fill:#cdccd2;}.cls-2{fill:#ffffff;}.cls-3{fill:#00b9ec;}.cls-4{fill:none;}</style></defs><title/><circle class="cls-1" cx="256" cy="254" r="207.77"/><circle class="cls-2" cx="256" cy="253.36" r="194.41"/><path class="cls-3" d="M152,212L187,182s24.35-21.59,40.27-8.91c0,0,11,5.28,15.42,42.4,0,0,4.15,32.15,8.55,40.85,0,0,5.68,19.69,12,18.59s15.65-14.46,15.65-14.46,14.67-20.59,15-26.67c0,0,10.08-24.49-11.64-24.55,0,0-12.75.86-14.91,3.21s7.1-17.06,7.1-17.06S288,161.9,330.12,167.11c23.71,2.93,24.74,25.25,21.11,44.21a112.49,112.49,0,0,1-15.74,39.13c-8.89,14-23.92,36.63-33.53,45.78-14.34,13.67-32.13,37.86-59.22,39.43s-38.17-61.34-38.17-61.34-12.77-62.27-27.31-59.69c0,0-11,4.87-15.81,9.21Z"/><rect class="cls-4" height="512" width="3172"/></svg>