<?xml version="1.0" ?>
<!-- Uploaded to: SVG Repo, www.svgrepo.com, Generator: SVG Repo Mixer Tools -->
<svg fill="#000000" width="800px" height="800px" viewBox="0 0 32 32" xmlns="http://www.w3.org/2000/svg">
<title/>
<g id="Vimeo">
<path d="M26.49,30H5.5A3.35,3.35,0,0,1,3,29a3.35,3.35,0,0,1-1-2.48V5.5A3.35,3.35,0,0,1,3,3,3.35,3.35,0,0,1,5.5,2h21A3.35,3.35,0,0,1,29,3,3.35,3.35,0,0,1,30,5.5v21A3.52,3.52,0,0,1,26.49,30ZM16,24.3A4.66,4.66,0,0,0,19.13,23q4.82-3.65,6.41-10.85l.07-.92q0-3.3-3.3-3.3A5.18,5.18,0,0,0,20,8.51a5,5,0,0,0-2.8,3.65,2.93,2.93,0,0,1,1.36-.43c.92,0,1.39.63,1.39,1.9a7.52,7.52,0,0,1-1.46,3.78c-.53.78-1,1.16-1.29,1.16-.52,0-1.17-1.28-1.94-3.84L15,13.51q-1.09-5.8-2.93-5.81a5.6,5.6,0,0,0-1.49.16,4.64,4.64,0,0,0-.82.28l-.23.19A17.76,17.76,0,0,0,8,10c-.49.59-.88,1.09-1.17,1.51l-.41.66.66.67.65-.6A1.78,1.78,0,0,1,8.59,12c.48,0,.81.29,1,.86a56.29,56.29,0,0,0,3.22,9.58A3.75,3.75,0,0,0,16,24.3Z"/>
</g>
</svg>